<svg xmlns="http://www.w3.org/2000/svg" xmlns:xlink="http://www.w3.org/1999/xlink" width="250" zoomAndPan="magnify" viewBox="0 0 187.5 60" height="80" preserveAspectRatio="xMidYMid meet" version="1.0"><defs><g/><clipPath id="f1acd1d582"><path d="M 2.269531 2.035156 L 53.882812 2.035156 L 53.882812 58 L 2.269531 58 Z M 2.269531 2.035156 " clip-rule="nonzero"/></clipPath><clipPath id="10e049963a"><path d="M 2.269531 8 L 46 8 L 46 53 L 2.269531 53 Z M 2.269531 8 " clip-rule="nonzero"/></clipPath><clipPath id="17b402eb11"><rect x="0" width="132" y="0" height="39"/></clipPath></defs><g clip-path="url(#f1acd1d582)"><path fill="#269643" d="M 7.175781 52.675781 L 2.339844 57.960938 L 14.46875 57.960938 L 17.847656 53.125 L 45.621094 13.359375 L 48.996094 8.523438 L 53.527344 2.035156 L 47.589844 8.523438 L 43.164062 13.359375 Z M 7.175781 52.675781 " fill-opacity="1" fill-rule="evenodd"/></g><g clip-path="url(#10e049963a)"><path fill="#2c3f1f" d="M 7.175781 13.359375 L 39.433594 13.359375 L 45.078125 8.523438 L 2.339844 8.523438 L 2.339844 52.589844 L 7.175781 47.304688 L 33.957031 18.046875 L 7.175781 40.980469 Z M 7.175781 13.359375 " fill-opacity="1" fill-rule="evenodd"/></g><path fill="#2c3f1f" d="M 46.941406 17.804688 L 46.941406 53.125 L 26.464844 53.125 L 44.34375 21.519531 L 18.894531 57.960938 L 51.777344 57.960938 L 51.777344 10.878906 Z M 46.941406 17.804688 " fill-opacity="1" fill-rule="evenodd"/><g transform="matrix(1, 0, 0, 1, 55, 18)"><g clip-path="url(#17b402eb11)"><g fill="#269643" fill-opacity="1"><g transform="translate(0.152694, 27.248353)"><g><path d="M 8.25 -25.546875 L 8.25 0 L 1.890625 0 L 1.890625 -25.546875 Z M 8.25 -25.546875 "/></g></g></g><g fill="#269643" fill-opacity="1"><g transform="translate(13.401078, 27.248353)"><g><path d="M 14.09375 -9.015625 L 14.265625 -9.015625 L 16.09375 -21.09375 C 16.238281 -22.019531 16.445312 -22.789062 16.71875 -23.40625 C 16.988281 -24.03125 17.320312 -24.535156 17.71875 -24.921875 C 18.125 -25.316406 18.570312 -25.59375 19.0625 -25.75 C 19.5625 -25.90625 20.117188 -25.984375 20.734375 -25.984375 C 21.441406 -25.984375 22.070312 -25.910156 22.625 -25.765625 C 23.1875 -25.617188 23.671875 -25.359375 24.078125 -24.984375 C 24.492188 -24.609375 24.832031 -24.078125 25.09375 -23.390625 C 25.351562 -22.710938 25.539062 -21.828125 25.65625 -20.734375 L 27.734375 0 L 21.6875 0 L 20.546875 -20.8125 L 20.46875 -20.8125 C 20.25 -19.007812 19.859375 -16.644531 19.296875 -13.71875 C 18.742188 -10.800781 18.09375 -7.175781 17.34375 -2.84375 C 17.164062 -1.914062 16.789062 -1.132812 16.21875 -0.5 C 15.644531 0.125 14.957031 0.4375 14.15625 0.4375 C 13.40625 0.4375 12.726562 0.144531 12.125 -0.4375 C 11.53125 -1.019531 11.125 -1.945312 10.90625 -3.21875 L 7.84375 -20.21875 L 7.78125 -20.21875 L 6.671875 0 L 0.625 0 L 2.703125 -20.84375 C 2.796875 -21.914062 2.976562 -22.785156 3.25 -23.453125 C 3.519531 -24.117188 3.859375 -24.640625 4.265625 -25.015625 C 4.679688 -25.398438 5.164062 -25.65625 5.71875 -25.78125 C 6.28125 -25.914062 6.914062 -25.984375 7.625 -25.984375 C 10.226562 -25.984375 11.765625 -24.441406 12.234375 -21.359375 Z M 14.09375 -9.015625 "/></g></g></g><g fill="#269643" fill-opacity="1"><g transform="translate(44.896994, 27.248353)"><g><path d="M 27.1875 -12.78125 C 27.1875 -10.945312 26.847656 -9.226562 26.171875 -7.625 C 25.492188 -6.019531 24.5625 -4.617188 23.375 -3.421875 C 22.195312 -2.234375 20.816406 -1.289062 19.234375 -0.59375 C 17.648438 0.09375 15.972656 0.4375 14.203125 0.4375 C 12.378906 0.4375 10.675781 0.0859375 9.09375 -0.609375 C 7.507812 -1.316406 6.132812 -2.273438 4.96875 -3.484375 C 3.800781 -4.691406 2.878906 -6.09375 2.203125 -7.6875 C 1.535156 -9.28125 1.203125 -10.976562 1.203125 -12.78125 C 1.203125 -14.601562 1.539062 -16.316406 2.21875 -17.921875 C 2.90625 -19.523438 3.835938 -20.921875 5.015625 -22.109375 C 6.191406 -23.304688 7.570312 -24.25 9.15625 -24.9375 C 10.738281 -25.632812 12.421875 -25.984375 14.203125 -25.984375 C 16.046875 -25.984375 17.757812 -25.625 19.34375 -24.90625 C 20.925781 -24.1875 22.300781 -23.222656 23.46875 -22.015625 C 24.632812 -20.816406 25.546875 -19.414062 26.203125 -17.8125 C 26.859375 -16.207031 27.1875 -14.53125 27.1875 -12.78125 Z M 14.203125 -6.0625 C 15.148438 -6.0625 16.023438 -6.242188 16.828125 -6.609375 C 17.628906 -6.972656 18.320312 -7.460938 18.90625 -8.078125 C 19.488281 -8.703125 19.941406 -9.421875 20.265625 -10.234375 C 20.597656 -11.054688 20.765625 -11.90625 20.765625 -12.78125 C 20.765625 -13.65625 20.601562 -14.492188 20.28125 -15.296875 C 19.96875 -16.097656 19.519531 -16.804688 18.9375 -17.421875 C 18.351562 -18.046875 17.65625 -18.546875 16.84375 -18.921875 C 16.03125 -19.296875 15.132812 -19.484375 14.15625 -19.484375 C 13.207031 -19.484375 12.332031 -19.296875 11.53125 -18.921875 C 10.726562 -18.546875 10.039062 -18.046875 9.46875 -17.421875 C 8.894531 -16.804688 8.441406 -16.097656 8.109375 -15.296875 C 7.785156 -14.492188 7.625 -13.65625 7.625 -12.78125 C 7.625 -11.90625 7.785156 -11.054688 8.109375 -10.234375 C 8.441406 -9.421875 8.898438 -8.703125 9.484375 -8.078125 C 10.066406 -7.460938 10.757812 -6.972656 11.5625 -6.609375 C 12.375 -6.242188 13.253906 -6.0625 14.203125 -6.0625 Z M 14.203125 -6.0625 "/></g></g></g><g fill="#269643" fill-opacity="1"><g transform="translate(76.392909, 27.248353)"><g><path d="M 16.859375 -25.546875 L 16.859375 -19.421875 L 14.125 -19.421875 C 12.25 -19.421875 10.734375 -18.851562 9.578125 -17.71875 C 8.421875 -16.59375 7.84375 -14.945312 7.84375 -12.78125 C 7.84375 -10.613281 8.425781 -8.960938 9.59375 -7.828125 C 10.757812 -6.691406 12.257812 -6.125 14.09375 -6.125 L 16.859375 -6.125 L 16.859375 0 L 12.890625 0 C 11.234375 0 9.691406 -0.332031 8.265625 -1 C 6.835938 -1.664062 5.601562 -2.578125 4.5625 -3.734375 C 3.519531 -4.890625 2.695312 -6.238281 2.09375 -7.78125 C 1.5 -9.332031 1.203125 -11 1.203125 -12.78125 C 1.203125 -14.53125 1.5 -16.179688 2.09375 -17.734375 C 2.695312 -19.296875 3.519531 -20.65625 4.5625 -21.8125 C 5.601562 -22.96875 6.835938 -23.878906 8.265625 -24.546875 C 9.691406 -25.210938 11.234375 -25.546875 12.890625 -25.546875 Z M 16.859375 -25.546875 "/></g></g></g><g fill="#269643" fill-opacity="1"><g transform="translate(97.743204, 27.248353)"><g><path d="M 8.25 -25.546875 L 8.25 0 L 1.890625 0 L 1.890625 -25.546875 Z M 8.25 -25.546875 "/></g></g></g><g fill="#269643" fill-opacity="1"><g transform="translate(110.991587, 27.248353)"><g><path d="M 15.46875 -25.546875 L 15.46875 -19.640625 L 8.984375 -19.640625 C 8.617188 -19.640625 8.296875 -19.554688 8.015625 -19.390625 C 7.734375 -19.234375 7.59375 -18.960938 7.59375 -18.578125 C 7.59375 -18.234375 7.832031 -17.84375 8.3125 -17.40625 C 8.800781 -16.96875 9.554688 -16.421875 10.578125 -15.765625 C 11.554688 -15.128906 12.445312 -14.5 13.25 -13.875 C 14.050781 -13.257812 14.738281 -12.628906 15.3125 -11.984375 C 15.882812 -11.335938 16.328125 -10.65625 16.640625 -9.9375 C 16.960938 -9.226562 17.125 -8.457031 17.125 -7.625 C 17.125 -6.332031 16.976562 -5.25 16.6875 -4.375 C 16.394531 -3.5 15.929688 -2.757812 15.296875 -2.15625 C 14.515625 -1.375 13.492188 -0.816406 12.234375 -0.484375 C 10.984375 -0.160156 9.582031 0 8.03125 0 L 1.28125 0 L 1.28125 -5.90625 L 8 -5.90625 C 8.625 -5.90625 9.15625 -6.015625 9.59375 -6.234375 C 10.03125 -6.453125 10.25 -6.804688 10.25 -7.296875 C 10.25 -7.765625 9.988281 -8.238281 9.46875 -8.71875 C 8.945312 -9.207031 8.164062 -9.804688 7.125 -10.515625 C 6.125 -11.171875 5.242188 -11.804688 4.484375 -12.421875 C 3.734375 -13.046875 3.109375 -13.664062 2.609375 -14.28125 C 2.109375 -14.90625 1.726562 -15.546875 1.46875 -16.203125 C 1.21875 -16.859375 1.09375 -17.566406 1.09375 -18.328125 C 1.09375 -19.515625 1.28125 -20.554688 1.65625 -21.453125 C 2.03125 -22.359375 2.554688 -23.113281 3.234375 -23.71875 C 3.921875 -24.332031 4.734375 -24.789062 5.671875 -25.09375 C 6.609375 -25.394531 7.640625 -25.546875 8.765625 -25.546875 Z M 15.46875 -25.546875 "/></g></g></g></g></g></svg>